<?xml version="1.0"?>
<svg xmlns="http://www.w3.org/2000/svg" xmlns:xlink="http://www.w3.org/1999/xlink" version="1.1" viewBox="0 0 252 252" width="96px" height="96px"><g fill="none" fill-rule="nonzero" stroke="none" stroke-width="1" stroke-linecap="butt" stroke-linejoin="miter" stroke-miterlimit="10" stroke-dasharray="" stroke-dashoffset="0" font-family="none" font-weight="none" font-size="none" text-anchor="none" style="mix-blend-mode: normal"><path d="M0,252v-252h252v252z" fill="none"/><g id="Layer_1"><circle cx="24" cy="24" transform="scale(5.25,5.25)" r="19.95" fill="#ffffff"/><path d="M42.00525,126c0,33.264 19.32,61.9815 47.3445,75.6l-40.0785,-109.788c-4.65675,10.45275 -7.266,21.987 -7.266,34.188zM182.721,121.7685c0,-10.37925 -5.58075,-17.5875 -8.7675,-23.163c-4.26825,-6.97725 -8.274,-12.79425 -8.274,-19.698c0,-7.69125 7.72275,-14.91 15.96525,-14.91c0.37275,0 0.70875,0.0315 1.0815,0.042c-14.931,-13.7235 -34.84425,-22.0395 -56.721,-22.0395c-28.29225,0 -53.30325,13.9965 -68.523,35.43225c1.197,0.3885 1.61175,0.20475 3.20775,0.20475c8.76225,0 22.386,-1.05 22.386,-1.05c4.515,-0.29925 5.06625,6.363 0.51975,6.909c0,0 -4.536,0.55125 -9.597,0.798l31.13775,93.3345l18.375,-55.13025l-13.66575,-38.052c-4.52025,-0.2415 -8.81475,-0.798 -8.81475,-0.798c-4.5255,-0.294 -4.0005,-7.21875 0.5145,-6.909c0,0 13.902,1.05 22.13925,1.05c8.79375,0 22.386,-1.05 22.386,-1.05c4.52025,-0.29925 5.06625,6.363 0.546,6.909c0,0 -4.5675,0.55125 -9.618,0.798l30.92775,92.4525l8.39475,-27.9615c4.2735,-10.92 6.39975,-19.95 6.39975,-27.16875zM127.47525,133.329l-25.2,73.248c7.539,2.2365 15.4875,3.423 23.73,3.423c9.77025,0 19.15725,-1.701 27.909,-4.76175c-0.21,-0.37275 -0.44625,-0.75075 -0.6195,-1.155zM199.72575,85.6695c0.37275,2.6775 0.567,5.55975 0.567,8.63625c0,8.547 -1.6065,18.11775 -6.39975,30.11925l-25.64625,74.20875c24.9795,-14.553 41.75325,-41.64825 41.75325,-72.63375c0,-14.60025 -3.73275,-28.329 -10.27425,-40.3305z" fill="#0092ca"/><path d="M21,126c0,57.876 47.0925,105 104.99475,105c57.91275,0 105.00525,-47.124 105.00525,-105c0,-57.876 -47.0925,-105 -105,-105c-57.9075,0 -105,47.124 -105,105zM31.47375,126c0,-52.101 42.3885,-94.49475 94.521,-94.49475c52.1325,0 94.5315,42.39375 94.5315,94.49475c0,52.101 -42.399,94.50525 -94.52625,94.50525c-52.122,0 -94.52625,-42.40425 -94.52625,-94.50525z" fill="#0092ca"/></g></g></svg>
